<?xml version="1.0" encoding="UTF-8"?>
<!DOCTYPE svg PUBLIC "-//W3C//DTD SVG 1.1//EN" "http://www.w3.org/Graphics/SVG/1.1/DTD/svg11.dtd">
<!-- Creator: CorelDRAW 2018 (64-Bit) -->
<svg xmlns="http://www.w3.org/2000/svg" xml:space="preserve" width="203.713mm" height="196.875mm" version="1.1" style="shape-rendering:geometricPrecision; text-rendering:geometricPrecision; image-rendering:optimizeQuality; fill-rule:evenodd; clip-rule:evenodd"
viewBox="0 0 20371.26 19687.49"
 xmlns:xlink="http://www.w3.org/1999/xlink">
 <defs>
  <style type="text/css">
   <![CDATA[
    .fil0 {fill:black}
   ]]>
  </style>
 </defs>
 <g id="Слой_x0020_1">
  <metadata id="CorelCorpID_0Corel-Layer"/>
  <path class="fil0" d="M20371.26 6702.36c0,-3695.79 -3006.57,-6702.36 -6702.36,-6702.36 -1239,0 -2435.58,340.62 -3483.69,980.07 -1048.53,-639.45 -2245.74,-980.07 -3482.64,-980.07 -3695.79,0 -6702.57,3006.57 -6702.57,6702.36 -0.21,2479.26 1333.5,4705.68 3495.87,5882.94 -7.77,132.93 -12.81,266.28 -12.81,399.63 0,3695.79 3006.57,6702.57 6702.36,6702.57 3695.79,0 6702.57,-3006.78 6702.57,-6702.57 0,-133.14 -5.04,-266.7 -13.02,-399.42 2162.58,-1177.26 3496.29,-3403.68 3496.29,-5883.15zm-3610.95 4979.31c-46.41,-235.2 -104.37,-468.09 -175.56,-695.94 -69.3,-221.55 -304.92,-344.61 -526.05,-275.73 -221.55,69.09 -345.03,304.5 -275.73,526.05 87.15,279.09 153.09,565.74 197.4,855.75 -269.22,115.71 -547.05,211.05 -829.29,284.34 -224.49,58.17 -359.31,287.7 -300.93,511.98 49.14,189 219.45,314.37 406.35,314.37 34.86,0 70.56,-4.41 105.84,-13.44 231.84,-60.27 460.53,-134.4 685.44,-219.66 0,5.04 0.42,10.5 0.42,15.54 0,3232.74 -2629.83,5862.57 -5862.57,5862.57 -3232.53,0 -5862.36,-2629.83 -5862.36,-5862.57 0,-5.04 0.42,-10.5 0.42,-15.54 224.91,85.26 454.02,159.6 685.86,219.87 35.49,9.24 70.98,13.44 106.05,13.44 186.69,0 357,-125.37 406.14,-314.37 58.38,-224.28 -76.23,-453.81 -300.72,-511.98 -282.66,-73.5 -560.7,-169.05 -830.34,-284.55 44.31,-290.22 110.46,-576.87 197.61,-855.33 69.09,-221.55 -54.39,-457.17 -275.73,-526.26 -221.55,-69.09 -456.96,54.18 -526.05,275.73 -71.19,227.85 -129.15,460.53 -175.56,695.73 -1721.58,-1065.12 -2770.95,-2922.57 -2770.74,-4979.1 0,-3232.53 2629.83,-5862.36 5862.57,-5862.36 957.6,0 1887.27,233.94 2724.33,674.31 -187.74,153.51 -367.71,316.26 -537.18,488.88 -162.54,165.48 -160.44,431.34 5.04,593.88 81.69,80.43 188.16,120.54 294.42,120.54 108.78,0 217.35,-42 299.46,-125.58 215.67,-219.24 449.82,-421.68 697.41,-604.8 235.2,174.09 457.59,365.61 664.02,572.25 82.11,82.11 189.42,123.06 297.15,123.06 107.52,0 214.83,-40.95 296.73,-122.85 164.22,-164.01 164.22,-429.87 0.42,-594.09 -158.55,-158.55 -325.29,-309.54 -498.96,-451.71 836.22,-440.16 1765.26,-673.89 2723.7,-673.89 3232.53,0 5862.36,2629.83 5862.36,5862.36 -0.42,2056.53 -1050,3914.19 -2771.37,4979.1z"/>
 </g>
</svg>
