<?xml version="1.0" encoding="UTF-8"?>
<!DOCTYPE svg PUBLIC "-//W3C//DTD SVG 1.1//EN" "http://www.w3.org/Graphics/SVG/1.1/DTD/svg11.dtd">
<!-- Creator: CorelDRAW 2018 (64-Bit) -->
<svg xmlns="http://www.w3.org/2000/svg" xml:space="preserve" width="102.715mm" height="68.6304mm" version="1.1" style="shape-rendering:geometricPrecision; text-rendering:geometricPrecision; image-rendering:optimizeQuality; fill-rule:evenodd; clip-rule:evenodd"
viewBox="0 0 22808.26 15239.64"
 xmlns:xlink="http://www.w3.org/1999/xlink">
 <defs>
  <style type="text/css">
   <![CDATA[
    .fil1 {fill:#999999}
    .fil0 {fill:white;fill-rule:nonzero}
   ]]>
  </style>
 </defs>
 <g id="Слой_x0020_1">
  <metadata id="CorelCorpID_0Corel-Layer"/>
  <path class="fil0" d="M18500.48 5840.24c270.95,0 534.22,-3.06 797.24,3.46 36.64,0.95 79.54,43.19 107.12,76.59 697.47,843.96 1393.19,1689.32 2089.39,2534.34 36.42,44.19 73.63,87.76 134.21,126.97l0 -2713.34 1179.82 0 0 4878.1c-180.69,0 -361.86,-16.17 -538.92,4.02 -222.36,25.4 -357.51,-61.42 -495.51,-233.22 -658.63,-819.49 -1332.86,-1626.54 -2001.73,-2437.88 -21.87,-26.62 -45.88,-51.58 -87.33,-97.84l0 2735.5 -1184.28 0 0 -4876.7zm-232.71 4884.85l-298.73 0c-281.92,0 -563.86,-3.46 -845.63,2.13 -82.96,1.67 -120.6,-27.38 -149.09,-101.99 -52.01,-136.05 -109.81,-269.84 -165.47,-404.49l-941.97 -4378.72c88,-0.6 176.02,-2 264,-3.75 69.41,-1.33 101.08,24.51 127.15,86.6 657.75,1569.1 1317.38,3137.38 1976.46,4705.92 10.9,25.96 18.85,53.14 33.29,94.31zm-16348.76 -1720.14l1114.04 0c-185.28,-455.79 -366.74,-902.2 -560.35,-1378.49 -191.37,476.46 -369.59,920.17 -553.69,1378.49zm3033.43 1720.03c-408.8,0 -802.28,1.55 -1195.72,-3.38 -29.47,-0.33 -71.15,-41.83 -85.29,-73.9 -84.54,-191.63 -164.63,-385.35 -241.73,-580.18 -23.2,-58.69 -53.74,-81.52 -119.09,-81.23 -560.11,2.62 -1120.31,2.46 -1680.48,0.11 -60.93,-0.22 -90.18,20.76 -111.65,75.79 -75.96,195.27 -154.11,389.79 -236.91,582.23 -14.1,32.73 -54.71,76.63 -83.51,77.03 -393.48,5.02 -787.03,3.42 -1198.07,3.42 17.25,-46.61 28.93,-82.25 43.41,-116.76 649.09,-1549.58 1299.15,-3098.72 1945.59,-4649.36 37.35,-89.62 79.65,-126.13 180.73,-121.73 212.84,9.37 426.39,5.15 639.56,1.53 66.42,-1.18 103.14,16.99 130.39,81.87 660.25,1575.87 1322.75,3150.86 1984.63,4726.06 8.24,19.54 14.39,39.88 28.13,78.5zm1648.06 -2809.82c266.6,0 525.89,4.37 784.85,-2.62 77.3,-2.13 156.39,-28.93 229.94,-56.78 160.9,-60.98 275.46,-170.05 316.25,-343.47 77.03,-327.35 -113.96,-603.3 -480.79,-645.22 -274.57,-31.38 -554.42,-16.37 -831.95,-21.41 -5.31,-0.11 -10.79,7.99 -18.3,13.92l0 1055.58zm-8.99 657.12l0 949.5 -429.9 442.86c-30.07,27.85 -50.72,66.17 -55.71,110.09 -11.1,97.44 58.87,185.48 156.3,196.58l329.31 38.46 0 409.02 -1153.86 0 0 -4857.74 103.48 0c581.94,0 1163.87,-0.67 1745.81,0.33 422.08,0.73 829.24,70.81 1194.69,294.8 326.15,199.87 524.87,467.6 610.18,789.87l-2115.15 2178.95 -286.87 -456.68c-22.65,-36.04 -46.43,-71.39 -69.7,-107.03 -9.5,3.71 -19.03,7.33 -28.58,10.97zm1761.13 2152.72c-93.11,0.38 -186.19,1.02 -279.3,2.02 -72.21,0.73 -109.14,-25.96 -145.4,-84.03l-119.27 -191.03 586.89 68.55 -42.92 204.49z"/>
  <path class="fil0" d="M17314.43 11175.28c57.13,0 101.12,19.19 131.94,57.6 30.8,38.39 46.21,93.75 46.21,166.1l0 446.08 -113.87 0 0 -430.01c0,-48.23 -8.04,-82.6 -24.12,-103.14 -16.08,-20.54 -37.06,-30.82 -62.95,-30.82 -25.89,0 -52.25,9.84 -79.03,29.49 -26.8,19.63 -50.03,46.43 -69.66,80.36l0 454.12 -113.87 0 0 -653.73 107.16 0 0 97.79c23.23,-36.62 50.01,-64.75 80.38,-84.38 30.35,-19.65 62.95,-29.47 97.79,-29.47zm649.69 0c56.27,0 100.04,18.74 131.28,56.25 31.27,37.5 46.9,93.33 46.9,167.45l0 238.44c0,70.57 -18.1,125.48 -54.27,164.79 -36.15,39.28 -85.05,58.93 -146.67,58.93 -25,0 -50.92,-4.91 -77.7,-14.74 -26.8,-9.81 -50.03,-20.54 -69.66,-32.15l0 278.63 -113.87 0 0 -901.54 107.16 0 0 95.13c23.23,-35.73 49.78,-63.2 79.72,-82.38 29.91,-19.21 62.29,-28.8 97.1,-28.8zm-22.76 101.79c-25.91,0 -52.03,9.39 -78.36,28.13 -26.36,18.76 -49.36,45.1 -68.99,79.05l0 328.2c19.63,15.17 40.64,27 62.95,35.48 22.34,8.48 42.88,12.72 61.62,12.72 73.23,0 109.85,-46.43 109.85,-139.32l0 -206.29c0,-50.89 -8.04,-86.62 -24.12,-107.16 -16.08,-20.54 -37.06,-30.82 -62.95,-30.82zm597.44 -101.79c82.16,0 142,21.65 179.51,64.95 37.5,43.32 56.27,102.92 56.27,178.84l0 198.25c0,75.92 -18.76,135.52 -56.27,178.84 -37.5,43.32 -97.35,64.97 -179.51,64.97 -82.16,0 -141.98,-21.65 -179.51,-64.97 -37.5,-43.32 -56.25,-102.92 -56.25,-178.84l0 -198.25c0,-75.92 18.74,-135.52 56.25,-178.84 37.53,-43.3 97.35,-64.95 179.51,-64.95zm0 95.11c-38.39,0 -68.33,11.84 -89.75,35.48 -21.43,23.67 -32.15,58.29 -32.15,103.83l0 217.01c0,45.54 10.73,80.14 32.15,103.81 21.43,23.67 51.36,35.51 89.75,35.51 38.42,0 68.33,-11.84 89.75,-35.51 21.43,-23.67 32.15,-58.27 32.15,-103.81l0 -218.37c0,-45.54 -10.73,-79.92 -32.15,-103.14 -21.43,-23.2 -51.34,-34.82 -89.75,-34.82zm624.24 -95.11c75.92,0 133.3,20.3 172.14,60.93 38.86,40.64 58.27,100.26 58.27,178.84l0 137.98 -344.27 0 0 79.03c0,45.54 10.73,78.36 32.15,98.46 21.43,20.1 56.27,30.13 104.5,30.13 28.58,0 58.93,-2.44 91.09,-7.35 32.15,-4.93 59.84,-9.61 83.05,-14.08l2.69 99.12c-29.47,5.37 -60.07,10.5 -91.75,15.41 -31.71,4.91 -60.51,7.37 -86.42,7.37 -90.2,0 -154.26,-19.43 -192.21,-58.27 -37.97,-38.86 -56.93,-98.01 -56.93,-177.51l0 -210.31c0,-77.7 18.52,-137.07 55.58,-178.15 37.06,-41.08 94.44,-61.62 172.14,-61.62zm0 95.11c-33.93,0 -61.4,10.7 -82.38,32.15 -20.98,21.43 -31.49,53.14 -31.49,95.11l0 64.28 230.43 0 0 -60.27c0,-44.66 -10.73,-77.7 -32.15,-99.12 -21.43,-21.45 -49.56,-32.15 -84.4,-32.15zm498.33 179.51l64.28 0 152.73 -258.56 124.57 0 -179.51 292.05 195.59 361.68 -133.97 0 -158.06 -304.08 -65.64 0 0 304.08 -113.87 0 0 -914.93 113.87 0 0 519.76zm1099.79 -274.61c57.16,0 100.92,19.19 131.28,57.6 30.38,38.39 45.54,93.75 45.54,166.1l0 446.08 -113.85 0 0 -430.01c0,-49.12 -7.82,-83.71 -23.45,-103.81 -15.63,-20.1 -36.39,-30.15 -62.29,-30.15 -25,0 -50.69,9.84 -77.03,29.49 -26.36,19.63 -49.34,46.43 -68.99,80.36l0 454.12 -113.87 0 0 -430.01c0,-49.12 -7.82,-83.71 -23.43,-103.81 -15.63,-20.1 -36.39,-30.15 -62.31,-30.15 -25,0 -50.67,9.84 -77.01,29.49 -26.36,19.63 -49.36,46.43 -68.99,80.36l0 454.12 -113.87 0 0 -653.73 107.16 0 0 97.79c23.23,-36.62 49.78,-64.75 79.72,-84.38 29.91,-19.65 61.84,-29.47 95.77,-29.47 83.94,0 138.43,41.08 163.43,123.24 24.12,-40.19 51.56,-70.79 82.38,-91.77 30.8,-20.98 64.08,-31.47 99.79,-31.47zm827.86 669.78l-113.87 0 0 -288 -235.75 0 0 288 -113.87 0 0 -653.73 113.87 0 0 271.95 235.75 0 0 -271.95 113.87 0 0 653.73zm387.15 -669.78c76.79,0 132.83,16.96 168.12,50.89 35.26,33.93 52.92,88.87 52.92,164.76l0 454.12 -108.52 0 0 -104.5c-52.69,80.38 -111.18,120.58 -175.49,120.58 -50.89,0 -91.97,-17.63 -123.24,-52.92 -31.24,-35.28 -46.88,-84.18 -46.88,-146.69l0 -37.5c0,-25.89 4.69,-50.23 14.06,-73.01 9.37,-22.76 22.78,-42.41 40.19,-58.93 17.41,-16.52 38.62,-29.69 63.62,-39.53 25.03,-9.81 53.14,-14.72 84.4,-14.72 19.65,0 42.41,1.78 68.33,5.35 25.89,3.58 49.12,7.59 69.66,12.06l0 -73.68c0,-40.19 -8.7,-68.33 -26.14,-84.4 -17.41,-16.08 -44.41,-24.12 -81.03,-24.12 -13.41,0 -28.13,0.69 -44.21,2.02 -16.08,1.33 -32.15,3.13 -48.23,5.35 -16.08,2.24 -31.93,4.46 -47.56,6.71 -15.61,2.22 -29.24,4.24 -40.86,6.02l0 -97.79c29.49,-4.46 61.18,-8.93 95.13,-13.39 33.93,-4.46 62.51,-6.68 85.73,-6.68zm-2.69 350.96c-38.39,0 -67.19,9.84 -86.4,29.47 -19.21,19.65 -28.8,47.34 -28.8,83.07l0 14.72c0,33.95 7.59,60.07 22.76,78.36 15.19,18.32 34.4,27.47 57.6,27.47 23.23,0 47.79,-10.26 73.68,-30.8 25.91,-20.54 49.58,-50.47 71.01,-89.75l0 -103.17c-17.88,-3.55 -37.06,-6.02 -57.6,-7.35 -20.54,-1.35 -37.97,-2.02 -52.25,-2.02zm834.57 318.82l-113.87 0 0 -259.87 -109.85 0 -129.92 259.87 -129.95 0 147.35 -270.59c-33.95,-10.73 -61.62,-29.02 -83.05,-54.91 -25.03,-31.27 -37.53,-71.01 -37.53,-119.24l0 -21.43c0,-31.24 9.17,-61.18 27.47,-89.75 18.32,-28.58 44.43,-52.01 78.36,-70.32 33.93,-18.3 74.12,-27.47 120.58,-27.47l230.4 0 0 653.73zm-214.33 -559.95c-41.99,0 -73.92,8.7 -95.79,26.14 -21.87,17.41 -32.82,41.75 -32.82,73.01l0 5.35c0,66.08 38.42,99.12 115.2,99.12l113.87 0 0 -203.62 -100.46 0zm-5450.76 1230.96l64.28 0 152.73 -258.56 124.57 0 -179.51 292.05 195.59 361.68 -133.97 0 -158.06 -304.08 -65.64 0 0 304.08 -113.87 0 0 -914.93 113.87 0 0 519.76zm673.8 -274.61c82.16,0 142,21.65 179.51,64.95 37.5,43.32 56.27,102.92 56.27,178.84l0 198.25c0,75.92 -18.76,135.52 -56.27,178.84 -37.5,43.32 -97.35,64.97 -179.51,64.97 -82.16,0 -141.98,-21.65 -179.51,-64.97 -37.5,-43.32 -56.25,-102.92 -56.25,-178.84l0 -198.25c0,-75.92 18.74,-135.52 56.25,-178.84 37.53,-43.3 97.35,-64.95 179.51,-64.95zm0 95.11c-38.39,0 -68.33,11.84 -89.75,35.48 -21.43,23.67 -32.15,58.29 -32.15,103.83l0 217.01c0,45.54 10.73,80.14 32.15,103.81 21.43,23.67 51.36,35.51 89.75,35.51 38.42,0 68.33,-11.84 89.75,-35.51 21.43,-23.67 32.15,-58.27 32.15,-103.81l0 -218.37c0,-45.54 -10.73,-79.92 -32.15,-103.14 -21.43,-23.2 -51.34,-34.82 -89.75,-34.82zm985.92 574.68l-111.18 0 -1.33 -456.81 -117.89 365.72 -108.5 0 -132.63 -365.72 0 456.81 -111.18 0 6.71 -653.73 132.61 0 159.41 446.08 144.67 -446.08 132.63 0 6.68 653.73zm466.2 -669.78c57.13,0 101.12,19.19 131.94,57.6 30.8,38.39 46.21,93.75 46.21,166.1l0 446.08 -113.87 0 0 -430.01c0,-48.23 -8.04,-82.6 -24.12,-103.14 -16.08,-20.54 -37.06,-30.82 -62.95,-30.82 -25.89,0 -52.25,9.84 -79.03,29.49 -26.8,19.63 -50.03,46.43 -69.66,80.36l0 454.12 -113.87 0 0 -653.73 107.16 0 0 97.79c23.23,-36.62 50.01,-64.75 80.38,-84.38 30.35,-19.65 62.95,-29.47 97.79,-29.47zm565.3 0c76.79,0 132.83,16.96 168.12,50.89 35.26,33.93 52.92,88.87 52.92,164.76l0 454.12 -108.52 0 0 -104.5c-52.69,80.38 -111.18,120.58 -175.49,120.58 -50.89,0 -91.97,-17.63 -123.24,-52.92 -31.24,-35.28 -46.88,-84.18 -46.88,-146.69l0 -37.5c0,-25.89 4.69,-50.23 14.06,-73.01 9.37,-22.76 22.78,-42.41 40.19,-58.93 17.41,-16.52 38.62,-29.69 63.62,-39.53 25.03,-9.81 53.14,-14.72 84.4,-14.72 19.65,0 42.41,1.78 68.33,5.35 25.89,3.58 49.12,7.59 69.66,12.06l0 -73.68c0,-40.19 -8.7,-68.33 -26.14,-84.4 -17.41,-16.08 -44.41,-24.12 -81.03,-24.12 -13.41,0 -28.13,0.69 -44.21,2.02 -16.08,1.33 -32.15,3.13 -48.23,5.35 -16.08,2.24 -31.93,4.46 -47.56,6.71 -15.61,2.22 -29.24,4.24 -40.86,6.02l0 -97.79c29.49,-4.46 61.18,-8.93 95.13,-13.39 33.93,-4.46 62.51,-6.68 85.73,-6.68zm-2.69 350.96c-38.39,0 -67.19,9.84 -86.4,29.47 -19.21,19.65 -28.8,47.34 -28.8,83.07l0 14.72c0,33.95 7.59,60.07 22.76,78.36 15.19,18.32 34.4,27.47 57.6,27.47 23.23,0 47.79,-10.26 73.68,-30.8 25.91,-20.54 49.58,-50.47 71.01,-89.75l0 -103.17c-17.88,-3.55 -37.06,-6.02 -57.6,-7.35 -20.54,-1.35 -37.97,-2.02 -52.25,-2.02zm868.05 318.82l-113.87 0 0 -288 -235.75 0 0 288 -113.87 0 0 -653.73 113.87 0 0 271.95 235.75 0 0 -271.95 113.87 0 0 653.73zm643 0l-107.16 0 0 -93.77c-24.12,35.73 -50.92,62.95 -80.38,81.72 -29.47,18.76 -60.73,28.13 -93.77,28.13 -53.58,0 -95.99,-18.32 -127.26,-54.91 -31.24,-36.62 -46.88,-92.89 -46.88,-168.81l0 -446.08 113.87 0 0 425.99c0,49.12 7.59,84.4 22.76,105.83 15.19,21.43 35.28,32.15 60.29,32.15 24.12,0 49.12,-9.59 75.01,-28.8 25.91,-19.21 49.12,-45.77 69.66,-79.7l0 -455.48 113.87 0 0 653.73zm617.55 0l-113.87 0 0 -259.87 -109.85 0 -129.92 259.87 -129.95 0 147.35 -270.59c-33.95,-10.73 -61.62,-29.02 -83.05,-54.91 -25.03,-31.27 -37.53,-71.01 -37.53,-119.24l0 -21.43c0,-31.24 9.17,-61.18 27.47,-89.75 18.32,-28.58 44.43,-52.01 78.36,-70.32 33.93,-18.3 74.12,-27.47 120.58,-27.47l230.4 0 0 653.73zm-214.33 -559.95c-41.99,0 -73.92,8.7 -95.79,26.14 -21.87,17.41 -32.82,41.75 -32.82,73.01l0 5.35c0,66.08 38.42,99.12 115.2,99.12l113.87 0 0 -203.62 -100.46 0z"/>
  <path class="fil1" d="M15126.6 8969.29l1109.25 -77.76c-216.81,-441.78 -428.52,-873.29 -654.24,-1333.3 -157.06,487.16 -304.64,944.88 -455.01,1411.06zm-4107.37 -3057.41l-934.56 1250.59 0 1067.48 -347.4 21.98 51.81 739.17 318.4 416.22 -73.14 1402.11 1193.36 62.24 66.17 86.49 1867.67 -130.92 -75.76 -1081.07 -2047.11 143.51 -120.04 -1712.52 -349.42 22.12 699.16 -44.26 0 -2243.14 -249.12 0zm-1768.84 1125.44l-1998.02 2058.28 201.94 283.1 943.77 -576.76 -164.1 -222.92c82.07,-35.48 149.53,-61.42 214.17,-93.15 515.7,-253.25 807.74,-658.32 811.94,-1241.37 0.51,-71.04 -2.69,-140.14 -9.7,-207.18zm-2405.84 2478.41l-562.2 579.16 462.27 54 18.14 -347.58 -480.41 293.58 575.61 -351.76 -13.41 -227.41zm1764.57 850.93l-77.81 370.79c271.75,13.35 543.41,28.58 815.16,42.37 26.25,1.38 52.69,-2.75 92.24,-5.11l-1113.36 -1928.32 -940.2 574.56c159.48,286.07 318.85,572.19 477.84,858.55l746.12 87.16zm7939.67 -510.79l-880.78 -4094.21 -72.21 6.02 -816.03 762.91c-470.67,1392.88 -943.11,2785.11 -1415.08,4177.5 -11.24,33.15 -20.34,67.04 -34.46,113.67 411.04,-28.82 807.05,-55.16 1202.6,-87.56 26.05,-2.11 59.53,-46.52 70.39,-77.94 68.46,-198.01 133.79,-397.17 195.12,-597.5 18.87,-61.84 49.56,-83.94 114.09,-88.18 545.65,-35.66 1091.11,-73.63 1636.36,-114.71z"/>
  <path class="fil0" d="M11522.28 5098.51l-618.04 240.86 -351.4 1016.38 664.96 -859.64 304.48 -397.61zm-2376.44 3172.19c38.97,-19.25 53.85,-46.34 62.64,-74.81l40.79 -129.15 441.15 -1391.83 -3013.8 3104.76 1812.47 -1107.6 656.75 -401.36zm330.64 -500.64l844.72 -1103.1 471.11 -1394.61c5.77,-17.65 19.05,-32.75 37.7,-39.95l840.58 -327.57 799.35 -1043.85 -2001.66 780.08 -575.65 1816.07 -0.13 0.42 -416.02 1312.52zm3344.57 -4159.85c-1.22,2.04 -2.55,4.02 -4.02,5.95l-1054.78 1377.4 -1.24 1.75 -128.01 167.03 -2269.26 2963.38 -27.91 88.09 3786.4 -239.66 1722.72 -6133.9 448.19 -1458.29 -2472.08 3228.26zm-765.18 8291.93l657.63 3135.4 3789.15 -4411.5 -4446.78 1276.1zm-50.12 -117.69l4608.55 -1322.51 -995.78 -4628.82 -2403.13 2246.74 -0.73 0.71 -0.42 0.38 -0.33 0.31 -0.2 0.18 -0.51 0.47 -0.04 0.04 -0.49 0.42 -0.29 0.27 -0.27 0.2 -0.51 0.44 -0.02 0.02 -0.53 0.44 -0.24 0.18 -0.31 0.27 -0.49 0.38 -0.07 0.04 -0.56 0.44 -0.2 0.13 -0.82 0.6 -0.09 0.09 -0.58 0.4 -0.16 0.11 -0.4 0.29 -0.44 0.29 -0.13 0.11 -0.58 0.38 -0.13 0.09 -0.44 0.29 -2.15 1.31 -0.2 0.13 -3 1.64 -0.4 0.2 -0.2 0.11 -1.22 0.6 -0.4 0.18 -0.22 0.11 -3.11 1.33 -0.42 0.16 -0.2 0.09 -1.27 0.47 -0.47 0.16 -0.16 0.07 -0.64 0.22 -0.16 0.04 -1.75 0.58 -0.2 0.04 -0.44 0.13 -0.53 0.16 -0.11 0.04 -0.64 0.16 -0.24 0.07 -0.4 0.11 -0.6 0.16 -0.04 0 -0.64 0.16 -0.31 0.09 -0.36 0.07 -0.64 0.13 0 0.02 -0.67 0.11 -0.33 0.09 -0.31 0.04 -0.64 0.13 -0.07 0.02 -0.6 0.09 -0.42 0.07 -0.24 0.04 -0.64 0.09 -1.15 0.18 -0.16 0 -0.67 0.09 -0.67 0.07 -0.56 0.07 -0.11 0 -0.64 0.07 -1.33 0.09 -1.07 0.07 -3804.2 240.82 2635.98 3445.76zm4728.7 -1233.82l-4006.65 4664.73c-3.33,4.24 -7.15,7.97 -11.3,11.15l-0.2 0.13 -0.16 0.13 -1.4 1 -0.07 0.07 -0.98 0.67 -0.13 0.11 -0.38 0.24 -0.02 0.02 -0.36 0.24 -0.2 0.11 -0.18 0.13 -0.36 0.22 -0.02 0.02 -0.53 0.31 -0.22 0.16 -0.31 0.2 -0.09 0.04 -0.38 0.22 -0.09 0.07 -0.31 0.18 -0.24 0.16 -0.13 0.07 -0.4 0.22 -0.04 0.02 -0.33 0.2 -0.22 0.13 -0.18 0.09 -0.4 0.22 -0.4 0.2 -0.18 0.11 -0.22 0.11 -0.33 0.18 -0.07 0.02 -0.4 0.2 -0.13 0.09 -0.27 0.11 -0.31 0.18 -0.09 0.02 -0.4 0.2 0 0.02 -0.09 0.04 -0.6 0.27 -0.09 0.04 -0.51 0.24 -0.27 0.11 -0.33 0.16 -0.44 0.2 -0.16 0.07 -0.6 0.24 -0.04 0.02 -1.58 0.64 -0.22 0.07 -0.58 0.22 -0.04 0.02 -0.64 0.22 -0.13 0.04 -0.49 0.18 -0.31 0.11 -0.31 0.09 -0.51 0.18 -0.13 0.04 -0.64 0.2 -0.02 0.02 -0.6 0.18 -0.22 0.07 -0.44 0.11 -1.29 0.36 -0.67 0.18 -0.09 0.02 -0.56 0.13 -0.67 0.16 -0.44 0.11 -0.22 0.04 -0.67 0.13 -1.6 0.31 -0.02 0.02c-12.39,2.24 -25.49,0.84 -37.84,-4.8l-4628.69 -2141.4 -0.02 0 -1.22 -0.58 -0.07 -0.04 -1.13 -0.56 -0.13 -0.09 -1.27 -0.67 -0.95 -0.53 -0.29 -0.16 -0.87 -0.51 -0.36 -0.2 -0.78 -0.49 -0.42 -0.27 -0.71 -0.47 -0.47 -0.29 -0.62 -0.44 -0.53 -0.36 -0.56 -0.4 -3.15 -2.42 -0.69 -0.56 -0.31 -0.29 -1 -0.87 -0.75 -0.67 -0.22 -0.22 -0.78 -0.71 -0.18 -0.2 -0.8 -0.75 -0.13 -0.16c-6.68,-6.71 -11.7,-14.83 -14.81,-23.6l-0.22 -0.67 -0.62 -1.89 -0.18 -0.62 -0.2 -0.64 -0.16 -0.64 -0.33 -1.27 -0.18 -0.69 -0.13 -0.6 -0.18 -0.71 -0.11 -0.58 -0.16 -0.75 -0.09 -0.56 -0.22 -1.31 -0.13 -0.78 -0.07 -0.53 -0.18 -1.33 -0.11 -0.8 -0.04 -0.53 -0.09 -0.82 -0.02 -0.51 -0.07 -0.82 -0.02 -0.51c-0.38,-6.11 0.22,-12.32 1.67,-18.45l545.3 -2598.32 -2257.71 -263.71 -0.89 -0.11 -0.73 -0.09 -0.13 -0.02 -1.75 -0.29 -0.87 -0.16 -0.87 -0.18 -0.87 -0.18 -0.29 -0.04c-31.4,-6.79 -53.12,-36.48 -49.43,-69.15 1.75,-15.61 9.08,-29.24 19.76,-39.17l3536.96 -3643.68 580.29 -1830.79c6.48,-20.61 22.54,-35.55 41.72,-41.52l2219.41 -864.92 2789.46 -3642.68c21.23,-27.8 61.02,-33.13 88.82,-11.9 6.64,5.06 11.99,11.19 16.01,17.96l2.4 3.6 679.31 1014.87 0.13 0.24 0.07 0.07 0.11 0.2 0.09 0.11 0.07 0.13c4.13,6.31 6.95,13.08 8.57,20.05l385.31 1336.19 -0.02 -0.09 0.02 0.09c4.86,14.06 4.82,29.89 -1.27,44.74l-168.69 407.34 247.15 767.77c5.24,16.32 3.49,33.2 -3.55,47.45l-938.09 2043.78 1026.89 4773.45c3.44,13.52 2.22,27.2 -2.66,39.3l-0.36 0.87c-3.02,7.19 -7.33,13.86 -12.77,19.5zm-8612.94 2447.85l4468.43 2067.25 -667.25 -3181.25 -2691.03 -3517.73 -2759.6 1686.41 2144.22 250.45c34.8,3.95 59.78,35.42 55.82,70.21 -0.33,2.93 -0.87,5.77 -1.58,8.55l-0.07 0.29 -0.07 0.27 -548.89 2615.55zm7357.2 -12789.32l-512.26 1666.8 -1673.09 5957.5 2300.5 -2150.77 6.17 -1167.91c0.02,-8.44 1.71,-16.48 4.75,-23.8l686.3 -1657.25 0.27 -0.67 0.27 -0.69 0.27 -0.67 169.18 -408.51 0 -0.02 -378.16 -1311.29 -604.21 -902.72zm864.28 2830.08l-616.49 1488.65 -4.71 889.64 815.12 -1775.88 -193.92 -602.41z"/>
 </g>
</svg>
